# xmcd CD database file
#
# Track frame offsets:
#	150
#	12751
#	27755
#	47265
#	64522
#	83420
#	96147
#	109548
#	123472
#	151972
#	166968
#	181193
#	202568
#
# Disc length: 2912 seconds
#
# Revision: 0
# Processed by: cddbd v1.5.2PL0 Copyright (c) Steve Scherf et al.
# Submitted via: CDex 1.70beta2
#
DISCID=830b5e0d
DTITLE=Varios - Les Etoiles de Cube (vol 3)
DYEAR=1900
DGENRE=Salsa
TTITLE0=La Juma de Ayer
TTITLE1=Saradonga
TTITLE2=Rita La Caimana
TTITLE3=Trompeta Querida
TTITLE4=El Paralitico
TTITLE5=Oyé mi Le Lo Ley
TTITLE6=El Botellero
TTITLE7=Esperanza
TTITLE8=La Pitusa Epifania
TTITLE9=Eso no lo me dicho yo
TTITLE10=Yo si como candela
TTITLE11=El Bolero
TTITLE12=Eso no es na
EXTD=
EXTT0=
EXTT1=
EXTT2=
EXTT3=
EXTT4=
EXTT5=
EXTT6=
EXTT7=
EXTT8=
EXTT9=
EXTT10=
EXTT11=
EXTT12=
PLAYORDER=
